# xmcd CD database file
#
# Track frame offsets:
#	150
#	15602
#	36450
#	52572
#	71037
#	87852
#	108425
#	125890
#	146490
#	172802
#	192885
#
# Disc length: 2912 seconds
#
# Revision: 0
# Processed by: cddbd v1.5.2PL0 Copyright (c) Steve Scherf et al.
# Submitted via: WildFire CD Ripper 
#
DISCID=910b5e0b
DTITLE=Ron Korb and Donald Quan - Tear of the Sun
DYEAR=1990
DGENRE=New Age
TTITLE0=Creation
TTITLE1=Forest Plateau
TTITLE2=The Sun Princess
TTITLE3=Sacred Spring
TTITLE4=The Emperor and His Warriors
TTITLE5=Palace of Eternal Light
TTITLE6=Floating Spirits
TTITLE7=Disappearing Sun
TTITLE8=Sea Journey
TTITLE9=The Offering
TTITLE10=Return to the Heavens
EXTD=YEAR: 1990
EXTT0=
EXTT1=
EXTT2=
EXTT3=
EXTT4=
EXTT5=
EXTT6=
EXTT7=
EXTT8=
EXTT9=
EXTT10=
PLAYORDER=
